<svg xmlns="http://www.w3.org/2000/svg" width="42" height="56" viewBox="0 0 42 56">
  <g id="Union_1" data-name="Union 1" fill="#cb3434">
    <path d="M 21.00005912780762 53.47472763061523 L 6.810965538024902 34.25876617431641 L 7.063342571258545 34.25876617431641 L 5.264602661132812 31.85909652709961 C 5.113122463226318 31.65700531005859 4.964112758636475 31.44974517822266 4.821702480316162 31.24308586120605 C 4.118642807006836 30.2230052947998 3.514992475509644 29.13298606872559 3.027442693710327 28.00316619873047 C 2.531332492828369 26.8531665802002 2.150272607803345 25.64985656738281 1.894902586936951 24.42683601379395 C 1.632872581481934 23.17166519165039 1.50000262260437 21.87903594970703 1.50000262260437 20.58488655090332 C 1.50000262260437 19.29074668884277 1.632872581481934 17.99811553955078 1.894912600517273 16.74289703369141 C 2.150272607803345 15.51991653442383 2.531332492828369 14.31661605834961 3.027512550354004 13.16645622253418 C 3.514842510223389 12.03714656829834 4.11848258972168 10.94718647003174 4.821612358093262 9.927016258239746 C 5.51804256439209 8.916336059570312 6.318522453308105 7.965385913848877 7.200892448425293 7.100466251373291 C 8.083772659301758 6.235026359558105 9.05477237701416 5.449716091156006 10.0869026184082 4.766355991363525 C 11.13015270233154 4.075466156005859 12.24492263793945 3.482286214828491 13.40038299560547 3.003186225891113 C 14.57790279388428 2.515096187591553 15.81021213531494 2.140156030654907 17.06290245056152 1.888836145401001 C 18.34910202026367 1.630836129188538 19.67376327514648 1.500006079673767 21.00005340576172 1.500006079673767 C 22.32634353637695 1.500006079673767 23.65100288391113 1.630836129188538 24.93723297119141 1.888846158981323 C 26.18989181518555 2.140156030654907 27.42220306396484 2.515096187591553 28.59988212585449 3.00325608253479 C 29.75554275512695 3.482436180114746 30.87038230895996 4.075625896453857 31.91328239440918 4.766266345977783 C 32.94553375244141 5.449716091156006 33.91653442382812 6.235026359558105 34.79942321777344 7.100466251373291 C 35.68181228637695 7.965415954589844 36.48229217529297 8.916356086730957 37.17860412597656 9.926886558532715 C 37.8818244934082 10.9471960067749 38.4854736328125 12.0371561050415 38.97286224365234 13.16661643981934 C 39.46897125244141 14.31661605834961 39.85003280639648 15.51991653442383 40.10540390014648 16.74294662475586 C 40.367431640625 17.99811553955078 40.50030136108398 19.29074668884277 40.50030136108398 20.58488655090332 C 40.50030136108398 21.87903594970703 40.367431640625 23.17166519165039 40.10539245605469 24.42687606811523 C 39.85003280639648 25.64985656738281 39.46897125244141 26.8531665802002 38.97279357910156 28.00332641601562 C 38.48532104492188 29.13297653198242 37.88167190551758 30.2230052947998 37.17869186401367 31.24297523498535 C 37.03631210327148 31.4495964050293 36.88728332519531 31.65685653686523 36.73568344116211 31.85912704467773 L 34.93708419799805 34.25876617431641 L 35.1893196105957 34.25876617431641 L 21.00005912780762 53.47472763061523 Z M 21.00005340576172 10.23123645782471 C 19.58253288269043 10.23123645782471 18.20634269714355 10.50383567810059 16.90970230102539 11.04146575927734 C 15.65665245056152 11.5608959197998 14.53074264526367 12.30498600006104 13.56335258483887 13.25301647186279 C 12.59386253356934 14.20358657836914 11.83258247375488 15.310866355896 11.30041217803955 16.54435539245605 C 10.74797248840332 17.82458686828613 10.46783256530762 19.18405532836914 10.46783256530762 20.58488655090332 C 10.46783256530762 21.98596572875977 10.7479829788208 23.34546661376953 11.30050277709961 24.6256160736084 C 11.83276271820068 25.85932540893555 12.59408283233643 26.96665573120117 13.56322288513184 27.91663551330566 C 14.53051280975342 28.86479568481445 15.65646266937256 29.60899543762207 16.90980339050293 30.12856674194336 C 18.20634269714355 30.66614532470703 19.58253288269043 30.93874549865723 21.00005340576172 30.93874549865723 C 22.41781234741211 30.93874549865723 23.79403305053711 30.66613578796387 25.09048271179199 30.12848663330078 C 26.34363174438477 29.60900688171387 27.4695930480957 28.86479568481445 28.43688201904297 27.91663551330566 C 29.40626335144043 26.96641540527344 30.16764259338379 25.85908699035645 30.69989204406738 24.62540626525879 C 31.25232315063477 23.34546661376953 31.53247261047363 21.98596572875977 31.53247261047363 20.58488655090332 C 31.53247261047363 19.18405532836914 31.25233268737793 17.82458686828613 30.69984245300293 16.54425621032715 C 30.16764259338379 15.31069660186768 29.40626335144043 14.20336627960205 28.43689346313477 13.25314617156982 C 27.46981239318848 12.30518627166748 26.34384346008301 11.56105613708496 25.09027290344238 11.04141616821289 C 23.79403305053711 10.50384616851807 22.41781234741211 10.23123645782471 21.00005340576172 10.23123645782471 Z" stroke="none"/>
    <path d="M 21.00006866455078 50.94952774047852 L 32.21707916259766 35.75876617431641 L 31.93820190429688 35.75876617431641 L 35.5354118347168 30.95948600769043 C 35.67512130737305 30.77308654785156 35.81241226196289 30.58214569091797 35.94361114501953 30.39174652099609 C 36.5910530090332 29.45236587524414 37.1468620300293 28.44877624511719 37.59549331665039 27.40915679931641 C 38.05182266235352 26.35135650634766 38.40226364135742 25.24480628967285 38.63704299926758 24.12033653259277 C 38.87808227539062 22.96574592590332 39.00030136108398 21.77624702453613 39.00030136108398 20.58488655090332 C 39.00030136108398 19.39352607727051 38.87808227539062 18.20403671264648 38.63706207275391 17.04952621459961 C 38.40226364135742 15.92496585845947 38.05182266235352 14.81842613220215 37.59562301635742 13.76092624664307 C 37.14701080322266 12.72134590148926 36.59120178222656 11.7178258895874 35.94344329833984 10.77798652648926 C 35.30152130126953 9.846405982971191 34.56333160400391 8.96950626373291 33.74941253662109 8.171666145324707 C 32.93445205688477 7.37281608581543 32.03812408447266 6.647906303405762 31.08506202697754 6.01689624786377 C 30.12203216552734 5.379136085510254 29.09254264831543 4.831366062164307 28.02552223205566 4.388936042785645 C 26.93774223327637 3.938046216964722 25.79941177368164 3.591706037521362 24.6422119140625 3.359546184539795 C 22.26357269287109 2.882406234741211 19.73646354675293 2.882416248321533 17.35796165466309 3.359536170959473 C 16.20069313049316 3.591706037521362 15.06236267089844 3.938046216964722 13.97491264343262 4.388796329498291 C 12.90793228149414 4.831206321716309 11.87851238250732 5.378976345062256 10.91498279571533 6.017076015472412 C 9.962182998657227 6.647916316986084 9.065852165222168 7.37281608581543 8.25090217590332 8.171666145324707 C 7.436992645263672 8.969475746154785 6.698812484741211 9.846376419067383 6.056682586669922 10.77826595306396 C 5.409102439880371 11.7178258895874 4.853292465209961 12.72134590148926 4.404812812805176 13.7606258392334 C 3.948482513427734 14.81842613220215 3.598042488098145 15.92496585845947 3.36326265335083 17.04943656921387 C 3.122222661972046 18.20403671264648 3.00000262260437 19.39352607727051 3.00000262260437 20.58488655090332 C 3.00000262260437 21.77624702453613 3.122222661972046 22.96574592590332 3.363242626190186 24.12024688720703 C 3.598042488098145 25.24480628967285 3.948482513427734 26.35135650634766 4.404672622680664 27.40884590148926 C 4.853442668914795 28.44878578186035 5.409262657165527 29.45236587524414 6.056842803955078 30.3919563293457 C 6.187992572784424 30.5822868347168 6.325272560119629 30.77320671081543 6.464852809906006 30.95941543579102 L 10.06233215332031 35.75876617431641 L 9.783187866210938 35.75876617431641 L 21.00006866455078 50.94952774047852 M 21.00005340576172 8.731236457824707 C 22.61601257324219 8.731236457824707 24.1855525970459 9.042346000671387 25.6646728515625 9.655746459960938 C 27.09624290466309 10.24917602539062 28.38222312927246 11.09911632537842 29.48691177368164 12.18195629119873 C 30.59596252441406 13.26909637451172 31.46745300292969 14.53689575195312 32.07708358764648 15.94994640350342 C 32.71103286743164 17.41904640197754 33.032470703125 18.97845649719238 33.032470703125 20.58488655090332 C 33.032470703125 22.19159698486328 32.71100234985352 23.75107574462891 32.07718276977539 25.21960639953613 C 31.46745300292969 26.63288688659668 30.59596252441406 27.90069580078125 29.48690223693848 28.98782539367676 C 28.38201332092285 30.07087707519531 27.09603309631348 30.92087554931641 25.66509246826172 31.5140552520752 C 24.1855525970459 32.12763595581055 22.61601257324219 32.43874740600586 21.00005340576172 32.43874740600586 C 19.38436317443848 32.43874740600586 17.81488227844238 32.12766647338867 16.33539199829102 31.51421546936035 C 14.904052734375 30.92086601257324 13.61809253692627 30.07086563110352 12.51321220397949 28.98783683776855 C 11.40438270568848 27.90093612670898 10.53295230865479 26.63311576843262 9.92330265045166 25.22001647949219 C 9.289302825927734 23.75107574462891 8.967832565307617 22.19159698486328 8.967832565307617 20.58488655090332 C 8.967832565307617 18.97845649719238 9.289272308349609 17.41904640197754 9.92313289642334 15.95015621185303 C 10.53275299072266 14.5371265411377 11.40409278869629 13.26940631866455 12.51347255706787 12.18168640136719 C 13.61842250823975 11.09883594512939 14.90431213378906 10.24899578094482 16.33518218994141 9.65584659576416 C 17.81488227844238 9.042316436767578 19.38436317443848 8.731236457824707 21.00005340576172 8.731236457824707 M 21.00005340576172 55.99991607666016 L 3.838752508163452 32.75876617431641 L 4.064362525939941 32.75876617431641 C 3.9005126953125 32.54017639160156 3.741142511367798 32.31854629516602 3.586552619934082 32.09420776367188 C 2.828102588653564 30.99376678466797 2.176562547683716 29.81723594665527 1.650202631950378 28.59748649597168 C 1.114292621612549 27.35521697998047 0.7025526165962219 26.05517578125 0.4265725910663605 24.7334156036377 C 0.143482580780983 23.37740707397461 2.587890548966243e-06 21.98154640197754 2.587890548966243e-06 20.58488655090332 C 2.587890548966243e-06 19.18823623657227 0.143482580780983 17.7923755645752 0.4265725910663605 16.43635559082031 C 0.7025526165962219 15.11460590362549 1.114292621612549 13.81456565856934 1.650202631950378 12.57229614257812 C 2.176562547683716 11.35253620147705 2.828102588653564 10.17620658874512 3.586552619934082 9.075776100158691 C 4.337682723999023 7.985706329345703 5.200582504272461 6.960766315460205 6.150872707366943 6.029266357421875 C 7.101152420043945 5.097765922546387 8.146762847900391 4.251925945281982 9.258822441101074 3.51564621925354 C 10.38144302368164 2.772196054458618 11.58149242401123 2.133536100387573 12.825852394104 1.617576122283936 C 14.09318256378174 1.092266082763672 15.41944217681885 0.6886661052703857 16.76785278320312 0.4181461334228516 C 19.53457260131836 -0.1368538737297058 22.46553230285645 -0.1368538737297058 25.23225212097168 0.4181461334228516 C 26.58066177368164 0.6886661052703857 27.90692329406738 1.092266082763672 29.17425346374512 1.617576122283936 C 30.41860198974609 2.133536100387573 31.61886215209961 2.772196054458618 32.74149322509766 3.51564621925354 C 33.85354232788086 4.251925945281982 34.89915084838867 5.097765922546387 35.84944152832031 6.029266357421875 C 36.79972076416016 6.960766315460205 37.66263198852539 7.985706329345703 38.41376113891602 9.075776100158691 C 39.17220306396484 10.17620658874512 39.8237419128418 11.35253620147705 40.35010147094727 12.57229614257812 C 40.88601303100586 13.81456565856934 41.29775238037109 15.11460590362549 41.57373428344727 16.43635559082031 C 41.8568229675293 17.7923755645752 42.00030136108398 19.18823623657227 42.00030136108398 20.58488655090332 C 42.00030136108398 21.98154640197754 41.8568229675293 23.37740707397461 41.57373428344727 24.7334156036377 C 41.29775238037109 26.05517578125 40.88601303100586 27.35521697998047 40.35010147094727 28.59748649597168 C 39.8237419128418 29.81723594665527 39.17220306396484 30.99376678466797 38.41376113891602 32.09420776367188 C 38.25917434692383 32.31854629516602 38.09979248046875 32.54017639160156 37.93595123291016 32.75876617431641 L 38.16155242919922 32.75876617431641 L 21.00005340576172 55.99991607666016 Z M 21.00005340576172 11.73123645782471 C 19.78069305419922 11.73123645782471 18.5979118347168 11.96530628204346 17.48422241210938 12.42707633972168 C 16.40875244140625 12.87289619445801 15.4428129196167 13.51136589050293 14.61324214935303 14.32433605194092 C 13.78387260437012 15.13751602172852 13.13252258300781 16.0843563079834 12.67770290374756 17.1385669708252 C 12.20662212371826 18.2302360534668 11.96783256530762 19.3896369934082 11.96783256530762 20.58488655090332 C 11.96783256530762 21.7801456451416 12.20662212371826 22.93974685668945 12.67770290374756 24.03120613098145 C 13.13252258300781 25.08542633056641 13.78387260437012 26.03246688842773 14.61324214935303 26.84543609619141 C 15.4428129196167 27.65860557556152 16.40875244140625 28.29707527160645 17.48422241210938 28.74290657043457 C 18.5979118347168 29.20467567443848 19.78069305419922 29.43874549865723 21.00005340576172 29.43874549865723 C 22.21941184997559 29.43874549865723 23.40239334106445 29.20467567443848 24.51587295532227 28.74290657043457 C 25.59135246276855 28.29707527160645 26.55729293823242 27.65860557556152 27.38686180114746 26.84543609619141 C 28.21643257141113 26.03226661682129 28.86778259277344 25.08542633056641 29.32260322570801 24.03120613098145 C 29.79368209838867 22.93974685668945 30.03247261047363 21.7801456451416 30.03247261047363 20.58488655090332 C 30.03247261047363 19.3896369934082 29.79368209838867 18.2302360534668 29.32260322570801 17.1385669708252 C 28.86778259277344 16.0843563079834 28.21643257141113 15.13751602172852 27.38686180114746 14.32433605194092 C 26.55749320983887 13.51136589050293 25.59135246276855 12.87289619445801 24.51587295532227 12.42707633972168 C 23.40239334106445 11.96530628204346 22.21941184997559 11.73123645782471 21.00005340576172 11.73123645782471 Z" stroke="none" fill="#fff"/>
  </g>
</svg>
